<svg width="1024" height="1024" viewBox="0 0 1024 1024" fill="none" xmlns="http://www.w3.org/2000/svg">
<mask id="mask0_103_53" style="mask-type:alpha" maskUnits="userSpaceOnUse" x="0" y="0" width="1024" height="1024">
<path d="M511.997 0C229.235 0 0 229.234 0 512.003C0 794.784 229.235 1024 511.997 1024C794.79 1024 1024 794.784 1024 512.003C1024 229.253 794.79 0.0244561 511.991 0.0244561L511.997 0ZM746.795 738.455C737.625 753.496 717.938 758.265 702.898 749.033C582.686 675.603 431.355 658.973 253.134 699.692C235.96 703.605 218.841 692.845 214.928 675.664C210.997 658.484 221.715 641.364 238.932 637.451C433.965 592.892 601.26 612.078 736.218 694.556C751.259 703.789 756.027 723.415 746.795 738.455ZM809.463 599.043C797.908 617.825 773.33 623.756 754.56 612.2C616.936 527.606 407.15 503.107 244.367 552.521C223.255 558.898 200.958 547 194.551 525.925C188.192 504.813 200.096 482.558 221.171 476.138C407.113 419.718 638.274 447.047 796.318 544.169C815.088 555.725 821.018 580.297 809.463 599.043ZM814.843 453.871C649.829 355.856 377.577 346.844 220.027 394.662C194.728 402.335 167.973 388.053 160.307 362.753C152.64 337.441 166.91 310.704 192.227 303.012C373.083 248.108 673.734 258.716 863.718 371.502C886.523 385.008 893.982 414.398 880.47 437.124C867.019 459.881 837.55 467.383 814.868 453.871H814.843Z" fill="#0094FF"/>
</mask>
<g mask="url(#mask0_103_53)">
<path d="M511.997 0C229.235 0 0 229.234 0 512.003C0 794.784 229.235 1024 511.997 1024C794.79 1024 1024 794.784 1024 512.003C1024 229.253 794.79 0.0244561 511.991 0.0244561L511.997 0ZM746.795 738.455C737.625 753.496 717.938 758.265 702.898 749.033C582.686 675.603 431.355 658.973 253.134 699.692C235.96 703.605 218.841 692.845 214.928 675.664C210.997 658.484 221.715 641.364 238.932 637.451C433.965 592.892 601.26 612.078 736.218 694.556C751.259 703.789 756.027 723.415 746.795 738.455ZM809.463 599.043C797.908 617.825 773.33 623.756 754.56 612.2C616.936 527.606 407.15 503.107 244.367 552.521C223.255 558.898 200.958 547 194.551 525.925C188.192 504.813 200.096 482.558 221.171 476.138C407.113 419.718 638.274 447.047 796.318 544.169C815.088 555.725 821.018 580.297 809.463 599.043ZM814.843 453.871C649.829 355.856 377.577 346.844 220.027 394.662C194.728 402.335 167.973 388.053 160.307 362.753C152.64 337.441 166.91 310.704 192.227 303.012C373.083 248.108 673.734 258.716 863.718 371.502C886.523 385.008 893.982 414.398 880.47 437.124C867.019 459.881 837.55 467.383 814.868 453.871H814.843Z" fill="#33FF5E"/>
<ellipse cx="839.784" cy="101.728" rx="271.045" ry="273.893" fill="#33EEFF"/>
<ellipse cx="583.247" cy="437.103" rx="365.541" ry="395.899" fill="#33A9FF"/>
<ellipse cx="871.832" cy="932.672" rx="307.287" ry="263.494" fill="#9933FF"/>
<ellipse cx="316.7" cy="773.285" rx="273.247" ry="399.417" fill="#33FFA2"/>
<ellipse cx="241.957" cy="165.201" rx="397.076" ry="268.86" fill="#333BFF"/>
<g filter="url(#filter0_b_103_53)">
<path d="M511.997 0C229.235 0 0 229.234 0 512.003C0 794.784 229.235 1024 511.997 1024C794.79 1024 1024 794.784 1024 512.003C1024 229.253 794.79 0.0244561 511.991 0.0244561L511.997 0ZM746.795 738.455C737.625 753.496 717.938 758.265 702.898 749.033C582.686 675.603 431.355 658.973 253.134 699.692C235.96 703.605 218.841 692.845 214.928 675.664C210.997 658.484 221.715 641.364 238.932 637.451C433.965 592.892 601.26 612.078 736.218 694.556C751.259 703.789 756.027 723.415 746.795 738.455ZM809.463 599.043C797.908 617.825 773.33 623.756 754.56 612.2C616.936 527.606 407.15 503.107 244.367 552.521C223.255 558.898 200.958 547 194.551 525.925C188.192 504.813 200.096 482.558 221.171 476.138C407.113 419.718 638.274 447.047 796.318 544.169C815.088 555.725 821.018 580.297 809.463 599.043ZM814.843 453.871C649.829 355.856 377.577 346.844 220.027 394.662C194.728 402.335 167.973 388.053 160.307 362.753C152.64 337.441 166.91 310.704 192.227 303.012C373.083 248.108 673.734 258.716 863.718 371.502C886.523 385.008 893.982 414.398 880.47 437.124C867.019 459.881 837.55 467.383 814.868 453.871H814.843Z" fill="#0094FF" fill-opacity="0.01"/>
</g>
</g>
<defs>
<filter id="filter0_b_103_53" x="-409.571" y="-409.571" width="1843.14" height="1843.14" filterUnits="userSpaceOnUse" color-interpolation-filters="sRGB">
<feFlood flood-opacity="0" result="BackgroundImageFix"/>
<feGaussianBlur in="BackgroundImageFix" stdDeviation="204.786"/>
<feComposite in2="SourceAlpha" operator="in" result="effect1_backgroundBlur_103_53"/>
<feBlend mode="normal" in="SourceGraphic" in2="effect1_backgroundBlur_103_53" result="shape"/>
</filter>
</defs>
</svg>
