<svg width="100" height="100" viewBox="0 0 100 100" fill="none" xmlns="http://www.w3.org/2000/svg">
<rect width="100" height="100" rx="37" fill="#FF016C"/>
<path d="M27 73.6765C27 76.3676 28.0385 78.9486 29.8871 80.8515C31.7357 82.7545 34.2429 83.8235 36.8571 83.8235H63.1429C65.7571 83.8235 68.2643 82.7545 70.1129 80.8515C71.9615 78.9486 73 76.3676 73 73.6765V26.3235C73 23.6324 71.9615 21.0514 70.1129 19.1485C68.2643 17.2455 65.7571 16.1765 63.1429 16.1765H36.8571C34.2429 16.1765 31.7357 17.2455 29.8871 19.1485C28.0385 21.0514 27 23.6324 27 26.3235V73.6765ZM36.8571 77.0588C35.9857 77.0588 35.15 76.7025 34.5338 76.0682C33.9176 75.4338 33.5714 74.5735 33.5714 73.6765V26.3235C33.5714 25.4265 33.9176 24.5662 34.5338 23.9318C35.15 23.2975 35.9857 22.9412 36.8571 22.9412H63.1429C64.0143 22.9412 64.85 23.2975 65.4662 23.9318C66.0824 24.5662 66.4286 25.4265 66.4286 26.3235V73.6765C66.4286 74.5735 66.0824 75.4338 65.4662 76.0682C64.85 76.7025 64.0143 77.0588 63.1429 77.0588H36.8571Z" fill="black"/>
<path d="M53.4307 35.0049C53.4307 33.9583 52.9979 32.9546 52.2277 32.2146C51.4575 31.4746 50.4128 31.0588 49.3235 31.0588C48.2342 31.0588 47.1896 31.4746 46.4193 32.2146C45.6491 32.9546 45.2164 33.9583 45.2164 35.0049C45.2164 36.0515 45.6491 37.0552 46.4193 37.7952C47.1896 38.5352 48.2342 38.951 49.3235 38.951C50.4128 38.951 51.4575 38.5352 52.2277 37.7952C52.9979 37.0552 53.4307 36.0515 53.4307 35.0049ZM49.3235 62.6274C48.0164 62.6274 46.7628 62.1285 45.8385 61.2405C44.9142 60.3525 44.3949 59.148 44.3949 57.8921C44.3949 56.6363 44.9142 55.4318 45.8385 54.5438C46.7628 53.6557 48.0164 53.1568 49.3235 53.1568C50.6307 53.1568 51.8843 53.6557 52.8085 54.5438C53.7328 55.4318 54.2521 56.6363 54.2521 57.8921C54.2521 59.148 53.7328 60.3525 52.8085 61.2405C51.8843 62.1285 50.6307 62.6274 49.3235 62.6274ZM37.8235 57.8921C37.8235 59.3431 38.121 60.7799 38.6989 62.1204C39.2768 63.4609 40.1239 64.679 41.1918 65.705C42.2597 66.731 43.5274 67.5448 44.9227 68.1001C46.3179 68.6554 47.8133 68.9412 49.3235 68.9412C50.8337 68.9412 52.3291 68.6554 53.7244 68.1001C55.1196 67.5448 56.3874 66.731 57.4552 65.705C58.5231 64.679 59.3702 63.4609 59.9481 62.1204C60.5261 60.7799 60.8235 59.3431 60.8235 57.8921C60.8235 54.9618 59.6119 52.1514 57.4552 50.0793C55.2986 48.0072 52.3735 46.8431 49.3235 46.8431C46.2735 46.8431 43.3485 48.0072 41.1918 50.0793C39.0351 52.1514 37.8235 54.9618 37.8235 57.8921Z" fill="black"/>
</svg>
