<svg width="12" height="14" viewBox="0 0 12 14" fill="fillColor" xmlns="http://www.w3.org/2000/svg">
<path d="M0.7 0C0.514349 0 0.336301 0.0737497 0.205025 0.205025C0.0737497 0.336301 0 0.514349 0 0.7V13.3C0 13.4857 0.0737497 13.6637 0.205025 13.795C0.336301 13.9262 0.514349 14 0.7 14H3.3C3.48565 14 3.6637 13.9262 3.79497 13.795C3.92625 13.6637 4 13.4857 4 13.3V0.7C4 0.514349 3.92625 0.336301 3.79497 0.205025C3.6637 0.0737497 3.48565 0 3.3 0H0.7ZM8.7 0C8.51435 0 8.3363 0.0737497 8.20503 0.205025C8.07375 0.336301 8 0.514349 8 0.7V13.3C8 13.4857 8.07375 13.6637 8.20503 13.795C8.3363 13.9262 8.51435 14 8.7 14H11.3C11.4857 14 11.6637 13.9262 11.795 13.795C11.9262 13.6637 12 13.4857 12 13.3V0.7C12 0.514349 11.9262 0.336301 11.795 0.205025C11.6637 0.0737497 11.4857 0 11.3 0H8.7Z" fill="black"/>
</svg>
