<?xml version="1.0" encoding="UTF-8" standalone="no"?>
<svg
   width="13"
   height="14"
   viewBox="0 0 13 14"
   fill="fillColor"
   version="1.1"
   id="svg4"
   sodipodi:docname="play.svg"
   inkscape:version="1.2 (dc2aedaf03, 2022-05-15)"
   xmlns:inkscape="http://www.inkscape.org/namespaces/inkscape"
   xmlns:sodipodi="http://sodipodi.sourceforge.net/DTD/sodipodi-0.dtd"
   xmlns="http://www.w3.org/2000/svg"
   xmlns:svg="http://www.w3.org/2000/svg">
  <defs
     id="defs8" />
  <sodipodi:namedview
     id="namedview6"
     pagecolor="#505050"
     bordercolor="#eeeeee"
     borderopacity="1"
     inkscape:showpageshadow="0"
     inkscape:pageopacity="0"
     inkscape:pagecheckerboard="0"
     inkscape:deskcolor="#505050"
     showgrid="false"
     inkscape:zoom="59.214286"
     inkscape:cx="5.4125452"
     inkscape:cy="7.0084439"
     inkscape:window-width="1920"
     inkscape:window-height="1009"
     inkscape:window-x="-8"
     inkscape:window-y="-8"
     inkscape:window-maximized="1"
     inkscape:current-layer="svg4" />
  <path
     d="M 0.35520044,0.700783 C 0.35506301,0.577841 0.3873074,0.457031 0.4486891,0.350508 0.510071,0.243986 0.598425,0.155508 0.704862,0.0939778 0.811298,0.0324474 0.932063,3.43173e-5 1.055005,2.72352e-8 1.177947,-3.42628e-5 1.29873,0.0323114 1.4052,0.0937825 l 10.89,6.2879975 c 0.1063,0.06147 0.1946,0.14982 0.2559,0.25619 0.0614,0.10637 0.0937,0.22701 0.0937,0.34981 0,0.1228 -0.0323,0.24345 -0.0937,0.34981 -0.0613,0.10637 -0.1496,0.19473 -0.2559,0.25619 l -10.89,6.28802 c -0.106397,0.0614 -0.227088,0.0938 -0.349945,0.0938 -0.122857,0 -0.243553,-0.0324 -0.34996,-0.0938 C 0.598888,13.8204 0.510518,13.7321 0.4490644,13.6257 0.387611,13.5193 0.35523866,13.3986 0.35520044,13.2758 Z"
     fill="#000000"
     id="path2" />
</svg>
