<svg width="14" height="14" viewBox="0 0 14 14" fill="fillColor" xmlns="http://www.w3.org/2000/svg">
<path d="M2.3 14C2.48565 14 2.6637 13.9263 2.79497 13.795C2.92625 13.6637 3 13.4857 3 13.3V8.15L12.95 13.893C13.0563 13.9544 13.1769 13.9867 13.2997 13.9868C13.4225 13.9868 13.5431 13.9546 13.6495 13.8933C13.7559 13.832 13.8442 13.7438 13.9058 13.6376C13.9673 13.5313 13.9998 13.4108 14 13.288L14 0.713C14.0001 0.590058 13.9679 0.469249 13.9065 0.362726C13.8451 0.256204 13.7568 0.167726 13.6503 0.106195C13.5439 0.0446653 13.4231 0.0122519 13.3002 0.0122175C13.1773 0.0121832 13.0565 0.044529 12.95 0.106L3 5.851V0.7C3 0.514348 2.92625 0.336301 2.79497 0.205026C2.6637 0.0737505 2.48565 0 2.3 0H0.7C0.514348 0 0.336301 0.0737505 0.205026 0.205026C0.0737505 0.336301 0 0.514348 0 0.7L0 13.3C0 13.4857 0.0737505 13.6637 0.205026 13.795C0.336301 13.9263 0.514348 14 0.7 14H2.3Z" fill="fillColor"/>
</svg>
