<svg width="160" height="160" viewBox="0 0 160 160" fill="none" xmlns="http://www.w3.org/2000/svg">
<rect width="160" height="160" fill="black"/>
<path d="M63 76C63 77.9891 63.7676 79.8968 65.1339 81.3033C66.5003 82.7098 68.3534 83.5 70.2857 83.5H89.7143C91.6466 83.5 93.4997 82.7098 94.8661 81.3033C96.2324 79.8968 97 77.9891 97 76V41C97 39.0109 96.2324 37.1032 94.8661 35.6967C93.4997 34.2902 91.6466 33.5 89.7143 33.5H70.2857C68.3534 33.5 66.5003 34.2902 65.1339 35.6967C63.7676 37.1032 63 39.0109 63 41V76ZM70.2857 78.5C69.6416 78.5 69.0239 78.2366 68.5685 77.7678C68.113 77.2989 67.8571 76.663 67.8571 76V41C67.8571 40.337 68.113 39.7011 68.5685 39.2322C69.0239 38.7634 69.6416 38.5 70.2857 38.5H89.7143C90.3584 38.5 90.9761 38.7634 91.4315 39.2322C91.887 39.7011 92.1429 40.337 92.1429 41V76C92.1429 76.663 91.887 77.2989 91.4315 77.7678C90.9761 78.2366 90.3584 78.5 89.7143 78.5H70.2857Z" fill="#B3B3B3"/>
<path d="M82.5357 47.4167C82.5357 46.6431 82.2159 45.9013 81.6466 45.3543C81.0773 44.8073 80.3051 44.5 79.5 44.5C78.6949 44.5 77.9227 44.8073 77.3534 45.3543C76.7841 45.9013 76.4643 46.6431 76.4643 47.4167C76.4643 48.1902 76.7841 48.9321 77.3534 49.4791C77.9227 50.026 78.6949 50.3333 79.5 50.3333C80.3051 50.3333 81.0773 50.026 81.6466 49.4791C82.2159 48.9321 82.5357 48.1902 82.5357 47.4167ZM79.5 67.8333C78.5339 67.8333 77.6073 67.4646 76.9241 66.8082C76.2409 66.1518 75.8571 65.2616 75.8571 64.3333C75.8571 63.4051 76.2409 62.5148 76.9241 61.8585C77.6073 61.2021 78.5339 60.8333 79.5 60.8333C80.4661 60.8333 81.3927 61.2021 82.0759 61.8585C82.7591 62.5148 83.1429 63.4051 83.1429 64.3333C83.1429 65.2616 82.7591 66.1518 82.0759 66.8082C81.3927 67.4646 80.4661 67.8333 79.5 67.8333ZM71 64.3333C71 65.4058 71.2199 66.4678 71.647 67.4586C72.0742 68.4494 72.7003 69.3497 73.4896 70.108C74.2789 70.8664 75.2159 71.4679 76.2472 71.8783C77.2785 72.2888 78.3838 72.5 79.5 72.5C80.6162 72.5 81.7215 72.2888 82.7528 71.8783C83.7841 71.4679 84.7211 70.8664 85.5104 70.108C86.2997 69.3497 86.9258 68.4494 87.353 67.4586C87.7801 66.4678 88 65.4058 88 64.3333C88 62.1674 87.1045 60.0902 85.5104 58.5586C83.9163 57.0271 81.7543 56.1667 79.5 56.1667C77.2457 56.1667 75.0837 57.0271 73.4896 58.5586C71.8955 60.0902 71 62.1674 71 64.3333Z" fill="#B3B3B3"/>
<path d="M34.1155 123V105.984H30.2035L24.7555 118.968L19.2355 105.984H15.3955V123H18.2035V110.52L23.4595 123H25.9555L31.2595 110.472V123H34.1155ZM40.7202 123V111.312H37.9602V123H40.7202ZM37.5282 107.208C37.5282 108.216 38.3442 109.008 39.3282 109.008C40.3362 109.008 41.1522 108.216 41.1522 107.208C41.1522 106.2 40.3362 105.384 39.3282 105.384C38.3442 105.384 37.5282 106.2 37.5282 107.208ZM47.0957 116.256C47.0957 114.72 47.9357 113.496 49.5197 113.496C51.2717 113.496 51.9197 114.648 51.9197 116.088V123H54.7037V115.608C54.7037 113.04 53.3357 110.976 50.4797 110.976C49.1837 110.976 47.7917 111.528 47.0237 112.872V111.312H44.3117V123H47.0957V116.256ZM60.853 123V111.312H58.093V123H60.853ZM57.661 107.208C57.661 108.216 58.477 109.008 59.461 109.008C60.469 109.008 61.285 108.216 61.285 107.208C61.285 106.2 60.469 105.384 59.461 105.384C58.477 105.384 57.661 106.2 57.661 107.208Z" fill="white" fill-opacity="0.7"/>
<path d="M80.6263 109.968C80.2423 108.072 78.6823 105.624 74.6743 105.624C71.5063 105.624 68.8903 107.976 68.8903 110.832C68.8903 113.376 70.6183 115.08 73.2103 115.608L75.6103 116.112C77.0743 116.424 77.8903 117.312 77.8903 118.416C77.8903 119.736 76.8343 120.768 74.7943 120.768C72.3463 120.768 71.0743 119.136 70.9063 117.36L68.2183 118.128C68.4823 120.576 70.4743 123.36 74.7943 123.36C78.6823 123.36 80.8183 120.84 80.8183 118.2C80.8183 115.8 79.2103 113.904 76.2103 113.304L73.7623 112.8C72.4423 112.512 71.7703 111.696 71.7703 110.616C71.7703 109.32 72.9703 108.168 74.6983 108.168C76.9783 108.168 77.8663 109.728 78.0343 110.784L80.6263 109.968ZM85.7905 127.56V121.68C86.3905 122.568 87.6625 123.288 89.3425 123.288C92.7025 123.288 94.8385 120.648 94.8385 117.144C94.8385 113.688 92.8945 111.048 89.4385 111.048C87.6385 111.048 86.2945 111.888 85.7185 112.896V111.312H83.0305V127.56H85.7905ZM92.0545 117.144C92.0545 119.376 90.7585 120.816 88.9105 120.816C87.0865 120.816 85.7665 119.376 85.7665 117.144C85.7665 114.96 87.0865 113.52 88.9105 113.52C90.7825 113.52 92.0545 114.96 92.0545 117.144ZM102.651 120.864C100.947 120.864 99.3868 119.568 99.3868 117.144C99.3868 114.72 100.947 113.472 102.651 113.472C104.379 113.472 105.915 114.72 105.915 117.144C105.915 119.592 104.379 120.864 102.651 120.864ZM102.651 110.952C99.1708 110.952 96.6028 113.568 96.6028 117.144C96.6028 120.744 99.1708 123.36 102.651 123.36C106.155 123.36 108.723 120.744 108.723 117.144C108.723 113.568 106.155 110.952 102.651 110.952ZM114.871 107.736H112.351V109.488C112.351 110.52 111.799 111.312 110.551 111.312H109.951V113.784H112.111V119.664C112.111 121.848 113.455 123.144 115.615 123.144C116.623 123.144 117.151 122.952 117.319 122.88V120.576C117.199 120.6 116.743 120.672 116.359 120.672C115.327 120.672 114.871 120.24 114.871 119.208V113.784H117.295V111.312H114.871V107.736ZM122.915 123V111.312H120.155V123H122.915ZM119.723 107.208C119.723 108.216 120.539 109.008 121.523 109.008C122.531 109.008 123.347 108.216 123.347 107.208C123.347 106.2 122.531 105.384 121.523 105.384C120.539 105.384 119.723 106.2 119.723 107.208ZM131.691 108C132.219 108 132.531 108.072 132.699 108.12V105.744C132.507 105.648 131.931 105.504 131.235 105.504C128.835 105.504 127.155 107.088 127.155 109.704V111.312H125.115V113.736H127.155V123H129.963V113.736H132.675V111.312H129.963V109.776C129.963 108.336 130.947 108 131.691 108ZM138.918 127.728L146.358 111.312H143.406L140.262 118.704L136.902 111.312H133.758L138.75 121.608L135.942 127.728H138.918Z" fill="white" fill-opacity="0.7"/>
</svg>
