<svg width="14" height="14" viewBox="0 0 14 14" fill="fillColor" xmlns="http://www.w3.org/2000/svg">
<path d="M11.7 0C11.5143 0 11.3363 0.0737497 11.205 0.205025C11.0738 0.336301 11 0.514349 11 0.7V5.85L1.05 0.107C0.943676 0.0456135 0.823077 0.0132707 0.700305 0.0132172C0.577532 0.0131637 0.456905 0.0454013 0.350527 0.106695C0.24415 0.167989 0.155764 0.256183 0.0942387 0.362427C0.0327138 0.468671 0.000213916 0.589228 4.37454e-07 0.712V13.287C-0.000136989 13.4099 0.0321073 13.5308 0.093489 13.6373C0.154871 13.7438 0.243225 13.8323 0.349661 13.8938C0.456098 13.9553 0.576863 13.9877 0.699805 13.9878C0.822747 13.9878 0.94353 13.9555 1.05 13.894L11 8.149V13.3C11 13.4857 11.0738 13.6637 11.205 13.795C11.3363 13.9262 11.5143 14 11.7 14H13.3C13.4857 14 13.6637 13.9262 13.795 13.795C13.9262 13.6637 14 13.4857 14 13.3V0.7C14 0.514349 13.9262 0.336301 13.795 0.205025C13.6637 0.0737497 13.4857 0 13.3 0H11.7Z" fill="fillColor"/>
</svg>
